<svg id="Distributed" height="512" viewBox="0 0 64 64" width="512" xmlns="http://www.w3.org/2000/svg" xmlns:xlink="http://www.w3.org/1999/xlink"><linearGradient id="linear-gradient" gradientUnits="userSpaceOnUse" x1="-.646" x2="65.022" y1="64.646" y2="-1.022"><stop offset="0" stop-color="#003f8a"/><stop offset=".518" stop-color="#00d7df"/><stop offset="1" stop-color="#006df0"/></linearGradient><linearGradient id="linear-gradient-2" x1="-22.646" x2="43.022" xlink:href="#linear-gradient" y1="42.646" y2="-23.022"/><linearGradient id="linear-gradient-3" x1="21.354" x2="87.022" xlink:href="#linear-gradient" y1="86.646" y2="20.978"/><linearGradient id="linear-gradient-6" x1="-11.646" x2="54.022" xlink:href="#linear-gradient" y1="53.646" y2="-12.022"/><linearGradient id="linear-gradient-7" x1="-7.646" x2="58.022" xlink:href="#linear-gradient" y1="57.646" y2="-8.022"/><linearGradient id="linear-gradient-9" x1="10.354" x2="76.022" xlink:href="#linear-gradient" y1="75.646" y2="9.978"/><linearGradient id="linear-gradient-10" x1="6.354" x2="72.022" xlink:href="#linear-gradient" y1="71.646" y2="5.978"/><linearGradient id="linear-gradient-14" x1="-15.646" x2="50.022" xlink:href="#linear-gradient" y1="49.646" y2="-16.022"/><linearGradient id="linear-gradient-17" x1="14.354" x2="80.022" xlink:href="#linear-gradient" y1="79.646" y2="13.978"/><linearGradient id="linear-gradient-23" x1="22.854" x2="88.522" xlink:href="#linear-gradient" y1="88.146" y2="22.478"/><linearGradient id="linear-gradient-24" x1="26.104" x2="91.772" xlink:href="#linear-gradient" y1="91.396" y2="25.728"/><path d="m40 41h-16a1 1 0 0 1 -1-1v-16a1 1 0 0 1 1-1h16a1 1 0 0 1 1 1v16a1 1 0 0 1 -1 1zm-15-2h14v-14h-14z" fill="url(#linear-gradient)"/><path d="m18 19h-16a1 1 0 0 1 -1-1v-16a1 1 0 0 1 1-1h16a1 1 0 0 1 1 1v16a1 1 0 0 1 -1 1zm-15-2h14v-14h-14z" fill="url(#linear-gradient-2)"/><path d="m62 63h-16a1 1 0 0 1 -1-1v-16a1 1 0 0 1 1-1h16a1 1 0 0 1 1 1v16a1 1 0 0 1 -1 1zm-15-2h14v-14h-14z" fill="url(#linear-gradient-3)"/><path d="m62 19h-16a1 1 0 0 1 -1-1v-16a1 1 0 0 1 1-1h16a1 1 0 0 1 1 1v16a1 1 0 0 1 -1 1zm-15-2h14v-14h-14z" fill="url(#linear-gradient)"/><path d="m18 63h-16a1 1 0 0 1 -1-1v-16a1 1 0 0 1 1-1h16a1 1 0 0 1 1 1v16a1 1 0 0 1 -1 1zm-15-2h14v-14h-14z" fill="url(#linear-gradient)"/><path d="m34 13h-4a1 1 0 0 1 -1-1v-4a1 1 0 0 1 1-1h4a1 1 0 0 1 1 1v4a1 1 0 0 1 -1 1zm-3-2h2v-2h-2z" fill="url(#linear-gradient-6)"/><path d="m32 24a1 1 0 0 1 -1-1v-10a1 1 0 0 1 2 0v10a1 1 0 0 1 -1 1z" fill="url(#linear-gradient-7)"/><path d="m45 11h-10a1 1 0 0 1 0-2h10a1 1 0 0 1 0 2z" fill="url(#linear-gradient-7)"/><path d="m34 57h-4a1 1 0 0 1 -1-1v-4a1 1 0 0 1 1-1h4a1 1 0 0 1 1 1v4a1 1 0 0 1 -1 1zm-3-2h2v-2h-2z" fill="url(#linear-gradient-9)"/><path d="m32 52a1 1 0 0 1 -1-1v-10a1 1 0 0 1 2 0v10a1 1 0 0 1 -1 1z" fill="url(#linear-gradient-10)"/><path d="m29 55h-10a1 1 0 0 1 0-2h10a1 1 0 0 1 0 2z" fill="url(#linear-gradient-10)"/><path d="m12 35h-4a1 1 0 0 1 -1-1v-4a1 1 0 0 1 1-1h4a1 1 0 0 1 1 1v4a1 1 0 0 1 -1 1zm-3-2h2v-2h-2z" fill="url(#linear-gradient-6)"/><path d="m23 33h-10a1 1 0 0 1 0-2h10a1 1 0 0 1 0 2z" fill="url(#linear-gradient-7)"/><path d="m10 30a1 1 0 0 1 -1-1v-10a1 1 0 0 1 2 0v10a1 1 0 0 1 -1 1z" fill="url(#linear-gradient-14)"/><path d="m56 35h-4a1 1 0 0 1 -1-1v-4a1 1 0 0 1 1-1h4a1 1 0 0 1 1 1v4a1 1 0 0 1 -1 1zm-3-2h2v-2h-2z" fill="url(#linear-gradient-9)"/><path d="m51 33h-10a1 1 0 0 1 0-2h10a1 1 0 0 1 0 2z" fill="url(#linear-gradient-10)"/><path d="m54 46a1 1 0 0 1 -1-1v-10a1 1 0 0 1 2 0v10a1 1 0 0 1 -1 1z" fill="url(#linear-gradient-17)"/><path d="m32 35a3 3 0 1 1 3-3 3 3 0 0 1 -3 3zm0-4a1 1 0 1 0 1 1 1 1 0 0 0 -1-1z" fill="url(#linear-gradient)"/><path d="m10 13a3 3 0 1 1 3-3 3 3 0 0 1 -3 3zm0-4a1 1 0 1 0 1 1 1 1 0 0 0 -1-1z" fill="url(#linear-gradient-2)"/><path d="m10 57a3 3 0 1 1 3-3 3 3 0 0 1 -3 3zm0-4a1 1 0 1 0 1 1 1 1 0 0 0 -1-1z" fill="url(#linear-gradient)"/><path d="m54 13a3 3 0 1 1 3-3 3 3 0 0 1 -3 3zm0-4a1 1 0 1 0 1 1 1 1 0 0 0 -1-1z" fill="url(#linear-gradient)"/><path d="m54 57a3 3 0 1 1 3-3 3 3 0 0 1 -3 3zm0-4a1 1 0 1 0 1 1 1 1 0 0 0 -1-1z" fill="url(#linear-gradient-3)"/><path d="m55 60h-6a1 1 0 0 1 0-2h6a1 1 0 0 1 0 2z" fill="url(#linear-gradient-23)"/><path d="m59 60h-1a1 1 0 0 1 0-2h1a1 1 0 0 1 0 2z" fill="url(#linear-gradient-24)"/></svg>