<svg height="512" viewBox="0 0 64 64" width="512" xmlns="http://www.w3.org/2000/svg" xmlns:xlink="http://www.w3.org/1999/xlink"><linearGradient id="linear-gradient" gradientUnits="userSpaceOnUse" x1="-14.61" x2="47.909" y1="45.61" y2="-16.909"><stop offset="0" stop-color="#003f8a"/><stop offset=".518" stop-color="#00d7df"/><stop offset="1" stop-color="#006df0"/></linearGradient><linearGradient id="linear-gradient-2" x1="-13.11" x2="49.409" xlink:href="#linear-gradient" y1="47.11" y2="-15.409"/><linearGradient id="linear-gradient-3" x1="-9.86" x2="52.659" xlink:href="#linear-gradient" y1="50.36" y2="-12.159"/><linearGradient id="linear-gradient-4" x1="-3.61" x2="58.909" xlink:href="#linear-gradient" y1="56.61" y2="-5.909"/><linearGradient id="linear-gradient-5" x1="1.89" x2="64.409" xlink:href="#linear-gradient" y1="62.11" y2="-.409"/><linearGradient id="linear-gradient-6" x1="7.39" x2="69.909" xlink:href="#linear-gradient" y1="67.61" y2="5.091"/><linearGradient id="linear-gradient-7" x1="19.89" x2="82.409" xlink:href="#linear-gradient" y1="80.11" y2="17.591"/><linearGradient id="linear-gradient-8" x1="23.14" x2="85.659" xlink:href="#linear-gradient" y1="83.36" y2="20.841"/><linearGradient id="linear-gradient-9" x1="18.39" x2="80.909" xlink:href="#linear-gradient" y1="78.61" y2="16.091"/><linearGradient id="linear-gradient-11" x1="-9.11" x2="53.409" xlink:href="#linear-gradient" y1="51.11" y2="-11.409"/><linearGradient id="linear-gradient-12" x1="12.89" x2="75.409" xlink:href="#linear-gradient" y1="73.11" y2="10.591"/><g id="Distributed-4" data-name="Distributed"><path d="m10 24a3 3 0 1 0 -3-3 3 3 0 0 0 3 3zm0-4a1 1 0 1 1 -1 1 1 1 0 0 1 1-1z" fill="url(#linear-gradient)"/><path d="m5 27h6a1 1 0 0 0 0-2h-6a1 1 0 0 0 0 2z" fill="url(#linear-gradient-2)"/><path d="m14 27h1a1 1 0 0 0 0-2h-1a1 1 0 0 0 0 2z" fill="url(#linear-gradient-3)"/><path d="m10 46a3 3 0 1 0 -3-3 3 3 0 0 0 3 3zm0-4a1 1 0 1 1 -1 1 1 1 0 0 1 1-1z" fill="url(#linear-gradient-4)"/><path d="m46 30h16a1 1 0 0 0 1-1v-16a1 1 0 0 0 -1-1h-16a1 1 0 0 0 -1 1v4.078l-4-7.333v-7.745a1 1 0 0 0 -1-1h-16a1 1 0 0 0 -1 1v7.745l-4 7.333v-4.078a1 1 0 0 0 -1-1h-16a1 1 0 0 0 -1 1v16a1 1 0 0 0 1 1h16a1 1 0 0 0 1-1v-4.078l3.861 7.078-3.861 7.078v-4.078a1 1 0 0 0 -1-1h-16a1 1 0 0 0 -1 1v16a1 1 0 0 0 1 1h16a1 1 0 0 0 1-1v-4.078l4 7.333v7.745a1 1 0 0 0 1 1h16a1 1 0 0 0 1-1v-7.745l4-7.333v4.078a1 1 0 0 0 1 1h16a1 1 0 0 0 1-1v-16a1 1 0 0 0 -1-1h-16a1 1 0 0 0 -1 1v4.078l-3.861-7.078 3.861-7.078v4.078a1 1 0 0 0 1 1zm1-16h14v14h-14zm-22-11h14v14h-14zm-1 16h16a1 1 0 0 0 1-1v-4.078l3.861 7.078-3.861 7.078v-4.078a1 1 0 0 0 -1-1h-16a1 1 0 0 0 -1 1v4.078l-3.861-7.078 3.861-7.078v4.078a1 1 0 0 0 1 1zm15 6v14h-14v-14zm-22 3h-14v-14h14zm0 22h-14v-14h14zm22 11h-14v-14h14zm1-16h-16a1 1 0 0 0 -1 1v4.078l-3.861-7.078 3.861-7.078v4.078a1 1 0 0 0 1 1h16a1 1 0 0 0 1-1v-4.078l3.861 7.078-3.861 7.078v-4.078a1 1 0 0 0 -1-1zm7-9h14v14h-14z" fill="url(#linear-gradient-5)"/><path d="m54 18a3 3 0 1 0 3 3 3 3 0 0 0 -3-3zm0 4a1 1 0 1 1 1-1 1 1 0 0 1 -1 1z" fill="url(#linear-gradient-6)"/><path d="m55 47h-6a1 1 0 0 0 0 2h6a1 1 0 0 0 0-2z" fill="url(#linear-gradient-7)"/><path d="m59 47h-1a1 1 0 0 0 0 2h1a1 1 0 0 0 0-2z" fill="url(#linear-gradient-8)"/><path d="m54 40a3 3 0 1 0 3 3 3 3 0 0 0 -3-3zm0 4a1 1 0 1 1 1-1 1 1 0 0 1 -1 1z" fill="url(#linear-gradient-9)"/><path d="m32 35a3 3 0 1 0 -3-3 3 3 0 0 0 3 3zm0-4a1 1 0 1 1 -1 1 1 1 0 0 1 1-1z" fill="url(#linear-gradient-5)"/><path d="m32 7a3 3 0 1 0 3 3 3 3 0 0 0 -3-3zm0 4a1 1 0 1 1 1-1 1 1 0 0 1 -1 1z" fill="url(#linear-gradient-11)"/><path d="m32 57a3 3 0 1 0 -3-3 3 3 0 0 0 3 3zm0-4a1 1 0 1 1 -1 1 1 1 0 0 1 1-1z" fill="url(#linear-gradient-12)"/></g></svg>